# This file uses centimeters as units for non-parametric coordinates.

v 0.809017 5.053546 -0.587785
v 0.309017 5.053546 -0.951057
v -0.309017 5.053546 -0.951057
v -0.809017 5.053546 -0.587785
v -1.000000 5.053546 0.000000
v -0.809017 5.053546 0.587785
v -0.309017 5.053546 0.951057
v 0.309017 5.053546 0.951057
v 0.809017 5.053546 0.587785
v 1.000000 5.053546 0.000000
v 0.000000 7.053546 0.000000
v 0.081430 -0.060618 -0.141041
v -0.081430 -0.060618 -0.141041
v -0.162860 -0.060618 -0.000000
v -0.081430 -0.060618 0.141041
v 0.081430 -0.060618 0.141041
v 0.162860 -0.060618 0.000000
v 0.081430 6.060618 -0.141041
v -0.081430 6.060618 -0.141041
v -0.162860 6.060618 -0.000000
v -0.081430 6.060618 0.141041
v 0.081430 6.060618 0.141041
v 0.162860 6.060618 0.000000
v 0.000000 -0.060618 0.000000
v 0.000000 6.060618 0.000000
vt 0.702254 0.103054
vt 0.577254 0.012236
vt 0.422746 0.012236
vt 0.297746 0.103054
vt 0.250000 0.250000
vt 0.297746 0.396946
vt 0.422746 0.487764
vt 0.577254 0.487764
vt 0.702254 0.396946
vt 0.750000 0.250000
vt 0.250000 0.500000
vt 0.300000 0.500000
vt 0.350000 0.500000
vt 0.400000 0.500000
vt 0.450000 0.500000
vt 0.500000 0.500000
vt 0.550000 0.500000
vt 0.600000 0.500000
vt 0.650000 0.500000
vt 0.700000 0.500000
vt 0.750000 0.500000
vt 0.500000 1.000000
vt 0.375000 0.312500
vt 0.416667 0.312500
vt 0.416667 0.688440
vt 0.375000 0.688440
vt 0.458333 0.312500
vt 0.458333 0.688440
vt 0.500000 0.312500
vt 0.500000 0.688440
vt 0.541667 0.312500
vt 0.541667 0.688440
vt 0.583333 0.312500
vt 0.583333 0.688440
vt 0.625000 0.312500
vt 0.625000 0.688440
vt 0.421875 0.020934
vt 0.578125 0.020934
vt 0.500000 0.150000
vt 0.343750 0.156250
vt 0.421875 0.291566
vt 0.578125 0.291566
vt 0.656250 0.156250
vt 0.578125 0.979066
vt 0.421875 0.979066
vt 0.500000 0.837500
vt 0.343750 0.843750
vt 0.421875 0.708434
vt 0.578125 0.708434
vt 0.656250 0.843750
vn 0.000000 -1.000000 -0.000000
vn 0.000000 -1.000000 -0.000000
vn 0.000000 -1.000000 -0.000000
vn 0.000000 -1.000000 -0.000000
vn 0.000000 -1.000000 -0.000000
vn 0.000000 -1.000000 -0.000000
vn 0.000000 -1.000000 -0.000000
vn 0.000000 -1.000000 -0.000000
vn 0.000000 -1.000000 -0.000000
vn 0.000000 -1.000000 -0.000000
vn 0.530825 0.429446 -0.730617
vn 0.530825 0.429446 -0.730617
vn 0.530825 0.429446 -0.730617
vn -0.000000 0.429446 -0.903092
vn -0.000000 0.429446 -0.903092
vn -0.000000 0.429446 -0.903093
vn -0.530824 0.429446 -0.730617
vn -0.530824 0.429446 -0.730617
vn -0.530824 0.429446 -0.730617
vn -0.858892 0.429446 -0.279071
vn -0.858892 0.429446 -0.279071
vn -0.858892 0.429446 -0.279071
vn -0.858892 0.429446 0.279071
vn -0.858892 0.429446 0.279071
vn -0.858892 0.429446 0.279071
vn -0.530825 0.429446 0.730617
vn -0.530825 0.429446 0.730617
vn -0.530825 0.429446 0.730617
vn 0.000000 0.429446 0.903092
vn 0.000000 0.429446 0.903092
vn 0.000000 0.429446 0.903093
vn 0.530824 0.429446 0.730617
vn 0.530824 0.429446 0.730617
vn 0.530824 0.429446 0.730617
vn 0.858892 0.429446 0.279071
vn 0.858892 0.429446 0.279071
vn 0.858892 0.429446 0.279071
vn 0.858892 0.429446 -0.279071
vn 0.858892 0.429446 -0.279071
vn 0.858892 0.429446 -0.279071
vn 0.000000 0.000000 -1.000000
vn 0.000000 0.000000 -1.000000
vn 0.000000 0.000000 -1.000000
vn 0.000000 0.000000 -1.000000
vn -0.866025 0.000000 -0.500000
vn -0.866025 0.000000 -0.500000
vn -0.866025 0.000000 -0.500000
vn -0.866025 0.000000 -0.500000
vn -0.866026 0.000000 0.500000
vn -0.866026 0.000000 0.500000
vn -0.866026 0.000000 0.500000
vn -0.866026 0.000000 0.500000
vn 0.000000 0.000000 1.000000
vn 0.000000 0.000000 1.000000
vn 0.000000 0.000000 1.000000
vn 0.000000 0.000000 1.000000
vn 0.866025 0.000000 0.500000
vn 0.866025 0.000000 0.500000
vn 0.866025 0.000000 0.500000
vn 0.866025 0.000000 0.500000
vn 0.866026 0.000000 -0.500000
vn 0.866026 0.000000 -0.500000
vn 0.866026 0.000000 -0.500000
vn 0.866026 0.000000 -0.500000
vn 0.000000 -1.000000 -0.000000
vn 0.000000 -1.000000 0.000000
vn 0.000000 -1.000000 -0.000000
vn 0.000000 -1.000000 -0.000000
vn 0.000000 -1.000000 -0.000000
vn 0.000000 -1.000000 0.000000
vn 0.000000 -1.000000 0.000000
vn 0.000000 1.000000 0.000003
vn 0.000000 1.000000 0.000001
vn 0.000000 1.000000 -0.000000
vn 0.000000 1.000000 -0.000001
vn 0.000000 1.000000 -0.000003
vn 0.000000 1.000000 -0.000001
vn 0.000000 1.000000 0.000001

g Arrow
f 1/1/1 10/10/2 9/9/3 8/8/4 7/7/5 6/6/6 5/5/7 4/4/8 3/3/9 2/2/10
f 1/11/11 2/12/12 11/22/13
f 2/12/14 3/13/15 11/22/16
f 3/13/17 4/14/18 11/22/19
f 4/14/20 5/15/21 11/22/22
f 5/15/23 6/16/24 11/22/25
f 6/16/26 7/17/27 11/22/28
f 7/17/29 8/18/30 11/22/31
f 8/18/32 9/19/33 11/22/34
f 9/19/35 10/20/36 11/22/37
f 10/20/38 1/21/39 11/22/40
f 12/23/41 13/24/42 19/25/43 18/26/44
f 13/24/45 14/27/46 20/28/47 19/25/48
f 14/27/49 15/29/50 21/30/51 20/28/52
f 15/29/53 16/31/54 22/32/55 21/30/56
f 16/31/57 17/33/58 23/34/59 22/32/60
f 17/33/61 12/35/62 18/36/63 23/34/64
f 13/37/65 12/38/66 24/39/67
f 14/40/68 13/37/65 24/39/67
f 15/41/69 14/40/68 24/39/67
f 16/42/70 15/41/69 24/39/67
f 17/43/71 16/42/70 24/39/67
f 12/38/66 17/43/71 24/39/67
f 18/44/72 19/45/73 25/46/74
f 19/45/73 20/47/75 25/46/74
f 20/47/75 21/48/76 25/46/74
f 21/48/76 22/49/77 25/46/74
f 22/49/77 23/50/78 25/46/74
f 23/50/78 18/44/72 25/46/74
