# 3ds Max Wavefront OBJ Exporter v0.97b - (c)2007 guruware
# File Created: 20.06.2016 11:33:40

#
# object Plane001
#

v  -3.1250 0.0000 1.5625
v  -3.1250 0.0000 3.1250
v  -1.5625 0.0000 1.5625
v  -1.5625 0.0000 3.1250
v  0.0000 0.0000 1.5625
v  0.0000 0.0000 3.1250
v  1.5625 0.0000 1.5625
v  1.5625 0.0000 3.1250
v  3.1250 0.0000 1.5625
v  3.1250 0.0000 3.1250
v  -3.1250 0.0000 -0.0000
v  -1.5625 0.0000 -0.0000
v  0.0000 0.0000 -0.0000
v  1.5625 0.0000 -0.0000
v  3.1250 0.0000 -0.0000
v  -3.1250 0.0000 -1.5625
v  -1.5625 0.0000 -1.5625
v  0.0000 0.0000 -1.5625
v  1.5625 0.0000 -1.5625
v  3.1250 0.0000 -1.5625
v  -3.1250 0.0000 -3.1250
v  -1.5625 0.0000 -3.1250
v  0.0000 0.0000 -3.1250
v  1.5625 0.0000 -3.1250
v  3.1250 0.0000 -3.1250
# 25 vertices

vn 0.0000 1.0000 -0.0000
# 1 vertex normals

g Plane001
f 1//1 2//1 3//1 
f 4//1 3//1 2//1 
f 3//1 4//1 5//1 
f 6//1 5//1 4//1 
f 5//1 6//1 7//1 
f 8//1 7//1 6//1 
f 7//1 8//1 9//1 
f 10//1 9//1 8//1 
f 11//1 1//1 12//1 
f 3//1 12//1 1//1 
f 12//1 3//1 13//1 
f 5//1 13//1 3//1 
f 13//1 5//1 14//1 
f 7//1 14//1 5//1 
f 14//1 7//1 15//1 
f 9//1 15//1 7//1 
f 16//1 11//1 17//1 
f 12//1 17//1 11//1 
f 17//1 12//1 18//1 
f 13//1 18//1 12//1 
f 18//1 13//1 19//1 
f 14//1 19//1 13//1 
f 19//1 14//1 20//1 
f 15//1 20//1 14//1 
f 21//1 16//1 22//1 
f 17//1 22//1 16//1 
f 22//1 17//1 23//1 
f 18//1 23//1 17//1 
f 23//1 18//1 24//1 
f 19//1 24//1 18//1 
f 24//1 19//1 25//1 
f 20//1 25//1 19//1 
# 32 faces

